# xmcd
#
# Track frame offsets: 
#        150
#        14523
#        35946
#        53769
#        73092
#        93990
#        111138
#        129561
#        150084
#        176232
#        191955
#        213003
#        231501
#        254199
#
# Disc length: 3813 seconds
#
# Revision: 0
# Processed by: cddbd v1.5.2PL0 Copyright (c) Steve Scherf et al.
# Submitted via: ExactAudioCopyFreeDBPlugin 1.0
#
DISCID=cf0ee30e
DTITLE=Dirty Dave Osti - Shakedown On Salvation Street
DYEAR=2013
DGENRE=Blues
TTITLE0=Reach For The Sky
TTITLE1=We Got The Right To Roll
TTITLE2=Ocean Girl
TTITLE3=Cold World
TTITLE4=Pull The Trigger (On Your Love)
TTITLE5=Stun Gun
TTITLE6=Blame It On The Times
TTITLE7=Certified Blues
TTITLE8=Lean Into The Wind
TTITLE9=Pale Rider
TTITLE10=Shakedown
TTITLE11=Old Man Blue
TTITLE12=In The Summertime
TTITLE13=Fairies Wear Boots
EXTD=
EXTT0=
EXTT1=
EXTT2=
EXTT3=
EXTT4=
EXTT5=
EXTT6=
EXTT7=
EXTT8=
EXTT9=
EXTT10=
EXTT11=
EXTT12=
EXTT13=
PLAYORDER=
